<?xml version="1.0" encoding="utf-8"?>
<!-- Generator: Adobe Illustrator 27.7.0, SVG Export Plug-In . SVG Version: 6.00 Build 0)  -->
<svg version="1.1" id="Layer_1" xmlns="http://www.w3.org/2000/svg" xmlns:xlink="http://www.w3.org/1999/xlink" x="0px" y="0px"
	 viewBox="0 0 318 96" style="enable-background:new 0 0 318 96;" xml:space="preserve">
<style type="text/css">
	.st0{fill:url(#SVGID_1_);}
	.st1{fill:url(#SVGID_00000147199000882032529590000015001944729407561385_);}
</style>
<g>
	<g>
		<g>
			<g>
				
					<radialGradient id="SVGID_1_" cx="-300.9605" cy="-2497.301" r="197.247" fx="-301.1622" fy="-2498.751" gradientTransform="matrix(0.5305 0 0 0.5305 216.5782 1369.5934)" gradientUnits="userSpaceOnUse">
					<stop  offset="0" style="stop-color:#E71F10"/>
					<stop  offset="0.1472" style="stop-color:#E71F10"/>
					<stop  offset="0.1789" style="stop-color:#E8320E"/>
					<stop  offset="0.2345" style="stop-color:#EA5405"/>
					<stop  offset="0.3073" style="stop-color:#EF7F00"/>
					<stop  offset="0.3936" style="stop-color:#F8B200"/>
					<stop  offset="0.4479" style="stop-color:#FED200"/>
					<stop  offset="1" style="stop-color:#FED200"/>
				</radialGradient>
				<path class="st0" d="M89.4,14.7c-15.8-11.6-32.4,4.7-36.2,10c-0.8,1.1-1.3,2.3,1,0.1c4.9-4.6,15.4-13.1,25-10.9
					c0.2,0.1,0.7,0.3,0.5,0.9c-0.3,0.7-0.8,2-1.7,4.3c-1.6,4.1-2.2,7.3-2.8,8.7c-0.5,1.1-1.5,1.6-1.6,0.5c-0.1-1.2-1.5-3.1-3.8-2.1
					c-2.3,1-2,3.6-1.2,4.6c1,1.1,2.5,1.5,1.5,2.2C69,33.6,66.8,35,65,35.6c-1.8,0.6-1.2,1.6,0.5,1.8c1.6,0.1,3.8-0.2,4.9-0.8
					c1.5-1,1.7,1.8,1.1,3.8c-0.6,2-5,6.7-6.2,8.4c-1.2,1.7,0.7,3.1,2.5,1.1c1.9-2,3.6-4.3,6.7-4.7c3.1-0.5,7.1,1.2,10.5-0.1
					c3.3-1.3,6.4-5,5.3-5.9c-1.1-1-2.7,1.5-5,1.8c-2.3,0.2-9.6,0.6-9.7-4.2c-0.1-4.8,0.2-4.1,1-5.8c0.7-1.7,3.4-8.9,5.1-11.4
					c1.5-2.1,2.9-3.5,3.9-3c0.1,0.1,0.2,0.2,0.1,0.1c7.3,4.8,9.9,13.9,5.7,26.8c-5.2,15.8-21.7,33.9-36.4,37.9
					c-16-1.6-30.6-20-35.3-33.6c0,0,4.1-2.9,8.4-1.9c4.3,1,10.2,3.4,14.3,2.3c3.4-0.9,3.3,0,2,1.7c-2.1,2.7-7.2,8-9.3,9.4
					c-2.1,1.4-2,4.4,2.5,2.7c4.5-1.7,10.2-7.5,10.9-9.8c0.7-2.4,1.6-2.3,2.1-0.6c0.5,1.7,3.1,11.4,3.7,13.8c0.6,2.4,2.4,3.3,2.8,0
					c0.4-3.3-2.1-14.4-2.7-17.5c-0.3-1.7-1-3.4-1-5.2c0-1.7,0.7-3.5,1.1-5.2c0.6-2.9-1.4-4.1-2.9-0.8c0,0-1.7,3.1-5.2,5.4
					c-2.2,1.4-5.1,2.9-8.5,2.2c-8.7-1.8-9.3-5.9-19.6-3.2c0-0.2,0-0.4-0.1-0.7c-1.4-26.3,20.9-21,24.3-17.2l0,0
					c-1,1.5-1.2,3.5-0.4,5.4c1.2,2.6,4.2,3.9,6.6,2.7c2.4-1.1,3.3-4.2,2.1-6.8c-1.2-2.6-4.2-3.9-6.6-2.7
					c-3.1-3.2-15.3-12.4-26.2-3.3C4.2,29.4,10,51.9,24.5,66.4c15.1,15.1,27.1,17.5,30.9,17.3c10-0.5,25.3-11.2,34.6-23.2
					C99.2,48.6,105.2,26.3,89.4,14.7z"/>
				
					<radialGradient id="SVGID_00000065775197902456423510000009310186491591294388_" cx="-285.9434" cy="-600.879" r="113.3784" gradientTransform="matrix(0.9234 0 0 0.9234 320.9571 599.6285)" gradientUnits="userSpaceOnUse">
					<stop  offset="0" style="stop-color:#E71F10"/>
					<stop  offset="0.1472" style="stop-color:#E71F10"/>
					<stop  offset="0.1789" style="stop-color:#E8320E"/>
					<stop  offset="0.2345" style="stop-color:#EA5405"/>
					<stop  offset="0.3073" style="stop-color:#EF7F00"/>
					<stop  offset="0.3936" style="stop-color:#F8B200"/>
					<stop  offset="0.4479" style="stop-color:#FED200"/>
					<stop  offset="1" style="stop-color:#FED200"/>
				</radialGradient>
				<path style="fill:url(#SVGID_00000065775197902456423510000009310186491591294388_);" d="M62.2,43.9c0-0.9-0.6-1.5-1.4-1.5
					c-0.8,0-1.2,0.6-1.2,0.6s-0.3-0.6-1.2-0.6c-0.8,0-1.4,0.6-1.4,1.5c0,1.5,2.2,2.9,2.6,2.9C60,46.8,62.2,45.5,62.2,43.9z"/>
			</g>
		</g>
		<g>
			<g>
				<path d="M147.7,63.1c0,0.5,0.1,1,0.2,1.5s0.4,0.8,0.6,1.2c0.3,0.3,0.6,0.6,1.1,0.8c0.4,0.2,0.9,0.3,1.5,0.3c0.3,0,0.6,0,1-0.1
					c0.3-0.1,0.6-0.2,0.9-0.3v-2.1h-2.1v-1.2h3.6v4.1c-0.5,0.3-1.1,0.5-1.6,0.6c-0.6,0.1-1.2,0.2-1.9,0.2c-0.7,0-1.4-0.1-2-0.4
					c-0.6-0.2-1.1-0.6-1.5-1c-0.4-0.4-0.7-0.9-0.9-1.5c-0.2-0.6-0.3-1.2-0.3-1.9c0-0.8,0.1-1.5,0.4-2.1c0.3-0.6,0.6-1.1,1.1-1.6
					c0.5-0.4,1-0.8,1.6-1c0.6-0.2,1.3-0.3,2-0.3c0.6,0,1.2,0.1,1.7,0.2c0.6,0.1,1,0.4,1.5,0.6l0,1.5c-0.2-0.2-0.5-0.3-0.7-0.5
					c-0.3-0.1-0.5-0.3-0.8-0.3c-0.3-0.1-0.6-0.2-0.8-0.2c-0.3-0.1-0.6-0.1-0.8-0.1c-0.5,0-1,0.1-1.5,0.3c-0.4,0.2-0.8,0.4-1.1,0.8
					c-0.3,0.3-0.5,0.7-0.7,1.2C147.8,62.1,147.7,62.6,147.7,63.1z"/>
				<path d="M165.5,62.9c0,0.8-0.1,1.5-0.3,2.1c-0.2,0.6-0.5,1.2-0.9,1.6c-0.4,0.4-0.9,0.8-1.4,1c-0.6,0.2-1.2,0.4-1.9,0.4
					c-0.7,0-1.3-0.1-1.9-0.3c-0.6-0.2-1-0.6-1.4-1c-0.4-0.4-0.7-0.9-0.9-1.5c-0.2-0.6-0.3-1.2-0.3-2c0-0.8,0.1-1.4,0.3-2.1
					c0.2-0.6,0.5-1.1,0.9-1.6c0.4-0.4,0.9-0.8,1.5-1c0.6-0.2,1.2-0.4,2-0.4c0.7,0,1.3,0.1,1.8,0.3c0.5,0.2,1,0.6,1.4,1
					c0.4,0.4,0.7,0.9,0.9,1.5C165.4,61.6,165.5,62.2,165.5,62.9z M164,63.1c0-0.6-0.1-1.1-0.2-1.6c-0.1-0.5-0.3-0.9-0.6-1.2
					c-0.3-0.3-0.6-0.6-0.9-0.7c-0.4-0.2-0.8-0.3-1.3-0.3c-0.5,0-0.9,0.1-1.3,0.3c-0.4,0.2-0.7,0.4-1,0.8c-0.3,0.3-0.5,0.7-0.6,1.2
					c-0.1,0.5-0.2,1-0.2,1.5c0,0.6,0.1,1.1,0.2,1.5c0.1,0.5,0.3,0.8,0.6,1.2c0.3,0.3,0.6,0.6,0.9,0.7c0.4,0.2,0.8,0.3,1.2,0.3
					c0.5,0,0.9-0.1,1.3-0.2c0.4-0.2,0.7-0.4,1-0.7c0.3-0.3,0.5-0.7,0.6-1.2C163.9,64.2,164,63.7,164,63.1z"/>
				<path d="M175.2,58.3l-3.7,9.6H170l-3.7-9.6h1.6l2.4,6.5c0,0.1,0.1,0.2,0.1,0.4c0.1,0.2,0.1,0.3,0.2,0.5c0.1,0.2,0.1,0.3,0.1,0.5
					c0,0.1,0.1,0.2,0.1,0.3c0,0,0-0.1,0-0.2c0-0.1,0-0.2,0.1-0.3c0-0.1,0.1-0.2,0.1-0.3c0-0.1,0.1-0.2,0.1-0.3
					c0-0.1,0.1-0.2,0.1-0.3c0-0.1,0-0.2,0.1-0.2l2.4-6.5H175.2z"/>
				<path d="M181.3,67.9h-4.8v-9.6h4.8v1.2H178v2.9h3.3v1.2H178v3h3.3V67.9z"/>
				<path d="M190.1,67.9h-1.7l-2.7-4.2H185v4.2h-1.5v-9.6h2.2c0.5,0,1,0,1.4,0.1c0.4,0.1,0.8,0.2,1.1,0.4c0.3,0.2,0.6,0.5,0.8,0.8
					c0.2,0.3,0.3,0.7,0.3,1.2c0,0.4-0.1,0.7-0.2,1c-0.1,0.3-0.3,0.5-0.5,0.8c-0.2,0.2-0.4,0.4-0.7,0.5c-0.3,0.1-0.5,0.2-0.8,0.3
					L190.1,67.9z M187.8,60.8c0-0.5-0.2-0.8-0.5-1c-0.3-0.2-0.8-0.3-1.5-0.3H185v2.9h0.7c0.7,0,1.2-0.1,1.5-0.4
					C187.6,61.7,187.8,61.4,187.8,60.8z"/>
				<path d="M200,67.9h-1.4l-4.7-6.2c0,0-0.1-0.1-0.2-0.2c-0.1-0.1-0.2-0.3-0.3-0.4c-0.1-0.1-0.2-0.3-0.3-0.4
					c-0.1-0.1-0.1-0.2-0.2-0.3v7.6h-1.3v-9.6h1.5l4.5,6c0.1,0.1,0.2,0.2,0.3,0.4c0.1,0.1,0.2,0.3,0.3,0.4c0.1,0.2,0.2,0.3,0.3,0.4
					c0.1,0.1,0.1,0.2,0.2,0.3v-7.6h1.3V67.9z"/>
				<path d="M211.2,62.9c0,0.8-0.1,1.5-0.3,2.1c-0.2,0.6-0.5,1.2-0.9,1.6c-0.4,0.4-0.9,0.8-1.4,1c-0.6,0.2-1.2,0.4-1.9,0.4
					c-0.7,0-1.3-0.1-1.9-0.3c-0.6-0.2-1-0.6-1.4-1c-0.4-0.4-0.7-0.9-0.9-1.5c-0.2-0.6-0.3-1.2-0.3-2c0-0.8,0.1-1.4,0.3-2.1
					c0.2-0.6,0.5-1.1,0.9-1.6c0.4-0.4,0.9-0.8,1.5-1c0.6-0.2,1.2-0.4,2-0.4c0.7,0,1.3,0.1,1.8,0.3c0.5,0.2,1,0.6,1.4,1
					c0.4,0.4,0.7,0.9,0.9,1.5C211,61.6,211.2,62.2,211.2,62.9z M209.7,63.1c0-0.6-0.1-1.1-0.2-1.6c-0.1-0.5-0.3-0.9-0.6-1.2
					c-0.3-0.3-0.6-0.6-0.9-0.7c-0.4-0.2-0.8-0.3-1.3-0.3c-0.5,0-0.9,0.1-1.3,0.3c-0.4,0.2-0.7,0.4-1,0.8c-0.3,0.3-0.5,0.7-0.6,1.2
					c-0.1,0.5-0.2,1-0.2,1.5c0,0.6,0.1,1.1,0.2,1.5c0.1,0.5,0.3,0.8,0.6,1.2c0.3,0.3,0.6,0.6,0.9,0.7c0.4,0.2,0.8,0.3,1.2,0.3
					c0.5,0,0.9-0.1,1.3-0.2c0.4-0.2,0.7-0.4,1-0.7c0.3-0.3,0.5-0.7,0.6-1.2C209.6,64.2,209.7,63.7,209.7,63.1z"/>
				<path d="M224.5,62.9c0,0.7-0.1,1.4-0.4,2c-0.3,0.6-0.7,1.1-1.2,1.6c-0.5,0.4-1.1,0.8-1.8,1c-0.7,0.2-1.4,0.4-2.3,0.4h-2.5v-9.6
					h2.6c0.9,0,1.6,0.1,2.3,0.3c0.7,0.2,1.3,0.5,1.7,0.9c0.5,0.4,0.8,0.9,1.1,1.4C224.4,61.5,224.5,62.1,224.5,62.9z M223,62.9
					c0-0.6-0.1-1.1-0.3-1.5c-0.2-0.4-0.4-0.8-0.8-1.1c-0.3-0.3-0.8-0.5-1.3-0.6c-0.5-0.1-1.1-0.2-1.7-0.2h-1.1v7.1h1
					c0.6,0,1.2-0.1,1.7-0.3c0.5-0.2,0.9-0.4,1.3-0.7c0.4-0.3,0.6-0.7,0.8-1.2C222.9,64,223,63.5,223,62.9z"/>
				<path d="M234.3,67.9h-1.6l-1.1-2.7H228l-1,2.7h-1.6l3.7-9.6h1.4L234.3,67.9z M230,60.6c0-0.1-0.1-0.2-0.1-0.3
					c0-0.1-0.1-0.3-0.1-0.4h0c0,0.2-0.1,0.3-0.1,0.4c0,0.1-0.1,0.2-0.1,0.3l-1.2,3.2h2.8L230,60.6z"/>
				<path d="M245.3,67.9h-1.7l-2.7-4.2h-0.7v4.2h-1.5v-9.6h2.2c0.5,0,1,0,1.4,0.1c0.4,0.1,0.8,0.2,1.1,0.4c0.3,0.2,0.6,0.5,0.8,0.8
					c0.2,0.3,0.3,0.7,0.3,1.2c0,0.4-0.1,0.7-0.2,1c-0.1,0.3-0.3,0.5-0.5,0.8c-0.2,0.2-0.4,0.4-0.7,0.5c-0.3,0.1-0.5,0.2-0.8,0.3
					L245.3,67.9z M243,60.8c0-0.5-0.2-0.8-0.5-1c-0.3-0.2-0.8-0.3-1.5-0.3h-0.8v2.9h0.7c0.7,0,1.2-0.1,1.5-0.4
					C242.9,61.7,243,61.4,243,60.8z"/>
				<path d="M254.4,67.9h-1.6l-1.1-2.7h-3.7l-1,2.7h-1.6l3.7-9.6h1.4L254.4,67.9z M250.1,60.6c0-0.1-0.1-0.2-0.1-0.3
					c0-0.1-0.1-0.3-0.1-0.4h0c0,0.2-0.1,0.3-0.1,0.4c0,0.1-0.1,0.2-0.1,0.3l-1.2,3.2h2.8L250.1,60.6z"/>
				<path d="M260.6,67.9h-4.8v-9.6h4.8v1.2h-3.3v2.9h3.3v1.2h-3.3v3h3.3V67.9z"/>
				<path d="M272.9,67.9h-1.3l-0.3-6.3c0-0.1,0-0.1,0-0.2c0-0.1,0-0.2,0-0.3c0-0.1,0-0.2,0-0.3c0-0.1,0-0.2,0-0.3
					c0,0.1-0.1,0.2-0.1,0.4c0,0.1-0.1,0.2-0.1,0.4c0,0.1-0.1,0.2-0.1,0.3c0,0.1,0,0.1-0.1,0.2l-2.4,6.3h-1.3l-2.5-6.3
					c0,0,0-0.1-0.1-0.2c0-0.1-0.1-0.2-0.1-0.3c0-0.1-0.1-0.2-0.1-0.3c0-0.1-0.1-0.2-0.1-0.4c0,0.1,0,0.2,0,0.3c0,0.1,0,0.2,0,0.3
					c0,0.1,0,0.2,0,0.3c0,0.1,0,0.2,0,0.3l-0.4,6.2h-1.3l0.7-9.6h1.6l2.8,7.1c0,0.1,0.1,0.1,0.1,0.2c0,0.1,0.1,0.2,0.1,0.3
					c0,0.1,0,0.2,0.1,0.3c0,0.1,0,0.2,0.1,0.3c0-0.1,0-0.2,0.1-0.3c0-0.1,0.1-0.2,0.1-0.3c0-0.1,0.1-0.2,0.1-0.3
					c0-0.1,0.1-0.2,0.1-0.2l2.7-7h1.6L272.9,67.9z"/>
				<path d="M117.7,82.5h-1.5v-9.6h1.5V82.5z"/>
				<path d="M128.7,82.5h-1.4l-4.7-6.2c0,0-0.1-0.1-0.2-0.2c-0.1-0.1-0.2-0.3-0.3-0.4c-0.1-0.1-0.2-0.3-0.3-0.4
					c-0.1-0.1-0.1-0.2-0.2-0.3v7.6h-1.3v-9.6h1.5l4.5,6c0.1,0.1,0.2,0.2,0.3,0.4c0.1,0.1,0.2,0.3,0.3,0.4c0.1,0.2,0.2,0.3,0.3,0.4
					c0.1,0.1,0.1,0.2,0.2,0.3v-7.6h1.3V82.5z"/>
				<path d="M136.6,79.8c0,0.4-0.1,0.8-0.2,1.1c-0.1,0.3-0.3,0.6-0.6,0.9c-0.3,0.3-0.6,0.5-1,0.6c-0.4,0.1-0.8,0.2-1.4,0.2
					c-0.3,0-0.5,0-0.8,0c-0.2,0-0.5-0.1-0.7-0.1c-0.2-0.1-0.4-0.1-0.6-0.2c-0.2-0.1-0.4-0.2-0.5-0.3v-1.5c0.2,0.1,0.3,0.2,0.6,0.3
					c0.2,0.1,0.4,0.2,0.7,0.3c0.2,0.1,0.5,0.2,0.7,0.2c0.2,0.1,0.4,0.1,0.6,0.1c0.3,0,0.5,0,0.8-0.1c0.2-0.1,0.4-0.2,0.5-0.3
					c0.1-0.1,0.3-0.3,0.3-0.5c0.1-0.2,0.1-0.4,0.1-0.6c0-0.3,0-0.5-0.1-0.6c-0.1-0.2-0.2-0.3-0.4-0.5c-0.2-0.1-0.4-0.2-0.6-0.3
					s-0.5-0.2-0.8-0.3c-0.4-0.2-0.8-0.3-1.1-0.5c-0.3-0.2-0.6-0.3-0.8-0.5c-0.2-0.2-0.4-0.4-0.5-0.7c-0.1-0.3-0.2-0.6-0.2-1
					c0-0.4,0.1-0.8,0.2-1.1c0.2-0.3,0.4-0.6,0.7-0.8c0.3-0.2,0.6-0.4,1-0.5c0.4-0.1,0.8-0.2,1.2-0.2c0.5,0,0.9,0,1.2,0.1
					c0.4,0.1,0.7,0.2,1,0.3v1.3c-0.1-0.1-0.3-0.1-0.5-0.2c-0.2-0.1-0.4-0.1-0.6-0.2c-0.2-0.1-0.4-0.1-0.6-0.1c-0.2,0-0.4,0-0.6,0
					c-0.3,0-0.5,0-0.7,0.1c-0.2,0.1-0.4,0.2-0.5,0.3c-0.1,0.1-0.2,0.3-0.3,0.4c-0.1,0.2-0.1,0.3-0.1,0.5c0,0.2,0,0.4,0.1,0.6
					c0.1,0.2,0.2,0.3,0.4,0.4c0.2,0.1,0.4,0.2,0.6,0.3c0.2,0.1,0.5,0.2,0.8,0.3c0.4,0.2,0.7,0.3,1,0.5c0.3,0.2,0.6,0.4,0.8,0.6
					c0.2,0.2,0.4,0.5,0.5,0.7C136.6,79.1,136.6,79.4,136.6,79.8z"/>
				<path d="M144.2,74.1h-2.4v8.3h-1.5v-8.3h-2.4v-1.2h6.3V74.1z"/>
				<path d="M147.5,82.5h-1.5v-9.6h1.5V82.5z"/>
				<path d="M155.7,74.1h-2.4v8.3h-1.5v-8.3h-2.4v-1.2h6.3V74.1z"/>
				<path d="M161.5,81.4c0.4,0,0.7-0.1,1-0.2c0.3-0.1,0.5-0.3,0.8-0.5c0.2-0.2,0.4-0.5,0.5-0.8c0.1-0.3,0.2-0.7,0.2-1.2v-5.9h1.4
					v5.7c0,0.7-0.1,1.3-0.3,1.8c-0.2,0.5-0.4,0.9-0.8,1.3c-0.3,0.3-0.8,0.6-1.3,0.8c-0.5,0.2-1,0.3-1.7,0.3c-0.6,0-1.1-0.1-1.6-0.2
					c-0.5-0.2-0.9-0.4-1.2-0.7c-0.3-0.3-0.6-0.7-0.8-1.2c-0.2-0.5-0.3-1.1-0.3-1.7v-5.8h1.5v5.8c0,0.5,0.1,0.9,0.2,1.2
					c0.1,0.3,0.3,0.6,0.5,0.9c0.2,0.2,0.5,0.4,0.8,0.5C160.8,81.4,161.1,81.4,161.5,81.4z"/>
				<path d="M173.4,74.1H171v8.3h-1.5v-8.3h-2.4v-1.2h6.3V74.1z"/>
				<path d="M183.9,77.6c0,0.8-0.1,1.5-0.3,2.1c-0.2,0.6-0.5,1.2-0.9,1.6c-0.4,0.4-0.9,0.8-1.4,1c-0.6,0.2-1.2,0.4-1.9,0.4
					c-0.7,0-1.3-0.1-1.9-0.3c-0.6-0.2-1-0.6-1.4-1c-0.4-0.4-0.7-0.9-0.9-1.5c-0.2-0.6-0.3-1.2-0.3-2c0-0.8,0.1-1.4,0.3-2.1
					c0.2-0.6,0.5-1.1,0.9-1.6c0.4-0.4,0.9-0.8,1.5-1c0.6-0.2,1.2-0.4,2-0.4c0.7,0,1.3,0.1,1.8,0.3c0.5,0.2,1,0.6,1.4,1
					c0.4,0.4,0.7,0.9,0.9,1.5C183.8,76.2,183.9,76.9,183.9,77.6z M182.4,77.7c0-0.6-0.1-1.1-0.2-1.6c-0.1-0.5-0.3-0.9-0.6-1.2
					c-0.3-0.3-0.6-0.6-0.9-0.7c-0.4-0.2-0.8-0.3-1.3-0.3c-0.5,0-0.9,0.1-1.3,0.3c-0.4,0.2-0.7,0.4-1,0.8c-0.3,0.3-0.5,0.7-0.6,1.2
					c-0.1,0.5-0.2,1-0.2,1.5c0,0.6,0.1,1.1,0.2,1.5c0.1,0.5,0.3,0.8,0.6,1.2c0.3,0.3,0.6,0.6,0.9,0.7c0.4,0.2,0.8,0.3,1.2,0.3
					c0.5,0,0.9-0.1,1.3-0.2c0.4-0.2,0.7-0.4,1-0.7c0.3-0.3,0.5-0.7,0.6-1.2C182.3,78.8,182.4,78.3,182.4,77.7z"/>
				<path d="M197.3,77.5c0,0.7-0.1,1.4-0.4,2c-0.3,0.6-0.7,1.1-1.2,1.6c-0.5,0.4-1.1,0.8-1.8,1c-0.7,0.2-1.4,0.4-2.3,0.4h-2.5v-9.6
					h2.6c0.9,0,1.6,0.1,2.3,0.3c0.7,0.2,1.3,0.5,1.7,0.9c0.5,0.4,0.8,0.9,1.1,1.4C197.2,76.1,197.3,76.7,197.3,77.5z M195.8,77.5
					c0-0.6-0.1-1.1-0.3-1.5c-0.2-0.4-0.4-0.8-0.8-1.1c-0.3-0.3-0.8-0.5-1.3-0.6c-0.5-0.1-1.1-0.2-1.7-0.2h-1.1v7.1h1
					c0.6,0,1.2-0.1,1.7-0.3c0.5-0.2,0.9-0.4,1.3-0.7c0.4-0.3,0.6-0.7,0.8-1.2C195.7,78.6,195.8,78.1,195.8,77.5z"/>
				<path d="M204.2,82.5h-4.8v-9.6h4.8v1.2h-3.3v2.9h3.3v1.2h-3.3v3h3.3V82.5z"/>
				<path d="M217.2,82.5h-1.6l-1.1-2.7h-3.7l-1,2.7h-1.6l3.7-9.6h1.4L217.2,82.5z M212.9,75.2c0-0.1-0.1-0.2-0.1-0.3
					c0-0.1-0.1-0.3-0.1-0.4h0c0,0.2-0.1,0.3-0.1,0.4c0,0.1-0.1,0.2-0.1,0.3l-1.2,3.2h2.8L212.9,75.2z"/>
				<path d="M219.6,77.8c0,0.5,0.1,1,0.2,1.5c0.2,0.4,0.4,0.8,0.7,1.1c0.3,0.3,0.6,0.6,1,0.7c0.4,0.2,0.8,0.3,1.3,0.3
					c0.4,0,0.9-0.1,1.3-0.2c0.4-0.1,0.9-0.3,1.3-0.5V82c-0.4,0.2-0.8,0.3-1.2,0.4c-0.5,0.1-1,0.2-1.5,0.2c-0.7,0-1.3-0.1-1.9-0.4
					c-0.6-0.2-1.1-0.6-1.5-1c-0.4-0.4-0.7-0.9-0.9-1.5c-0.2-0.6-0.3-1.2-0.3-2c0-0.7,0.1-1.4,0.4-2c0.2-0.6,0.6-1.1,1-1.6
					c0.4-0.4,0.9-0.8,1.5-1c0.6-0.2,1.2-0.4,1.9-0.4c0.2,0,0.5,0,0.7,0c0.2,0,0.5,0.1,0.7,0.1c0.2,0,0.4,0.1,0.6,0.2
					c0.2,0.1,0.4,0.1,0.6,0.2v1.3c-0.2-0.1-0.4-0.1-0.6-0.2c-0.2-0.1-0.4-0.1-0.7-0.2c-0.2-0.1-0.5-0.1-0.7-0.1
					c-0.2,0-0.5-0.1-0.7-0.1c-0.5,0-0.9,0.1-1.3,0.3c-0.4,0.2-0.7,0.4-1,0.8c-0.3,0.3-0.5,0.7-0.7,1.2
					C219.7,76.7,219.6,77.2,219.6,77.8z"/>
				<path d="M228.6,77.8c0,0.5,0.1,1,0.2,1.5c0.2,0.4,0.4,0.8,0.7,1.1c0.3,0.3,0.6,0.6,1,0.7c0.4,0.2,0.8,0.3,1.3,0.3
					c0.4,0,0.9-0.1,1.3-0.2c0.4-0.1,0.9-0.3,1.3-0.5V82c-0.4,0.2-0.8,0.3-1.2,0.4c-0.5,0.1-1,0.2-1.5,0.2c-0.7,0-1.3-0.1-1.9-0.4
					c-0.6-0.2-1.1-0.6-1.5-1c-0.4-0.4-0.7-0.9-0.9-1.5c-0.2-0.6-0.3-1.2-0.3-2c0-0.7,0.1-1.4,0.4-2c0.2-0.6,0.6-1.1,1-1.6
					c0.4-0.4,0.9-0.8,1.5-1c0.6-0.2,1.2-0.4,1.9-0.4c0.2,0,0.5,0,0.7,0c0.2,0,0.5,0.1,0.7,0.1c0.2,0,0.4,0.1,0.6,0.2
					c0.2,0.1,0.4,0.1,0.6,0.2v1.3c-0.2-0.1-0.4-0.1-0.6-0.2c-0.2-0.1-0.4-0.1-0.7-0.2c-0.2-0.1-0.5-0.1-0.7-0.1
					c-0.2,0-0.5-0.1-0.7-0.1c-0.5,0-0.9,0.1-1.3,0.3c-0.4,0.2-0.7,0.4-1,0.8c-0.3,0.3-0.5,0.7-0.7,1.2
					C228.7,76.7,228.6,77.2,228.6,77.8z M232.6,84.1c0,0.4-0.1,0.7-0.4,1c-0.3,0.2-0.7,0.4-1.4,0.4c-0.1,0-0.3,0-0.4,0
					c-0.2,0-0.3,0-0.4-0.1v-0.9c0.1,0,0.2,0,0.4,0.1c0.1,0,0.3,0,0.3,0c0.2,0,0.4,0,0.5-0.1c0.1-0.1,0.2-0.2,0.2-0.3
					c0-0.2-0.1-0.3-0.3-0.4c-0.2-0.1-0.5-0.2-0.8-0.2l0.7-1.3h1.1l-0.4,0.7c0.1,0,0.2,0.1,0.4,0.1c0.1,0.1,0.2,0.1,0.3,0.2
					c0.1,0.1,0.1,0.2,0.2,0.3C232.6,83.8,232.6,83.9,232.6,84.1z"/>
				<path d="M244.2,82.5h-1.6l-1.1-2.7h-3.7l-1,2.7h-1.6l3.7-9.6h1.4L244.2,82.5z M240.6,72.3c-0.2,0-0.4,0-0.6-0.1
					c-0.2-0.1-0.4-0.2-0.5-0.3c-0.1-0.1-0.2-0.1-0.4-0.2c-0.1-0.1-0.2-0.1-0.3-0.1c-0.1,0-0.2,0.1-0.3,0.2c-0.1,0.1-0.2,0.3-0.2,0.5
					h-0.9c0.1-0.5,0.2-1,0.5-1.3c0.2-0.3,0.6-0.5,1-0.5c0.2,0,0.4,0,0.6,0.1c0.2,0.1,0.3,0.2,0.5,0.3c0.1,0.1,0.3,0.1,0.4,0.2
					c0.1,0.1,0.2,0.1,0.3,0.1c0.1,0,0.2-0.1,0.3-0.2c0.1-0.1,0.2-0.3,0.2-0.5h0.9c0,0.3-0.1,0.5-0.1,0.7c-0.1,0.2-0.2,0.4-0.3,0.6
					c-0.1,0.2-0.3,0.3-0.4,0.4C240.9,72.3,240.8,72.3,240.6,72.3z M239.9,75.2c0-0.1-0.1-0.2-0.1-0.3c0-0.1-0.1-0.3-0.1-0.4h0
					c0,0.2-0.1,0.3-0.1,0.4c0,0.1-0.1,0.2-0.1,0.3l-1.2,3.2h2.8L239.9,75.2z"/>
				<path d="M254.1,77.6c0,0.8-0.1,1.5-0.3,2.1c-0.2,0.6-0.5,1.2-0.9,1.6s-0.9,0.8-1.4,1c-0.6,0.2-1.2,0.4-1.9,0.4
					c-0.7,0-1.3-0.1-1.8-0.3c-0.6-0.2-1-0.6-1.4-1c-0.4-0.4-0.7-0.9-0.9-1.5c-0.2-0.6-0.3-1.2-0.3-2c0-0.8,0.1-1.4,0.3-2.1
					c0.2-0.6,0.5-1.1,0.9-1.6c0.4-0.4,0.9-0.8,1.5-1c0.6-0.2,1.2-0.4,2-0.4c0.7,0,1.3,0.1,1.8,0.3c0.5,0.2,1,0.6,1.4,1
					c0.4,0.4,0.7,0.9,0.9,1.5C254,76.2,254.1,76.9,254.1,77.6z M252.6,77.7c0-0.6-0.1-1.1-0.2-1.6c-0.1-0.5-0.3-0.9-0.6-1.2
					c-0.3-0.3-0.6-0.6-0.9-0.7c-0.4-0.2-0.8-0.3-1.3-0.3c-0.5,0-0.9,0.1-1.3,0.3c-0.4,0.2-0.7,0.4-1,0.8c-0.3,0.3-0.5,0.7-0.6,1.2
					c-0.1,0.5-0.2,1-0.2,1.5c0,0.6,0.1,1.1,0.2,1.5c0.1,0.5,0.3,0.8,0.6,1.2c0.3,0.3,0.6,0.6,0.9,0.7c0.4,0.2,0.8,0.3,1.2,0.3
					c0.5,0,0.9-0.1,1.3-0.2c0.4-0.2,0.7-0.4,1-0.7c0.3-0.3,0.5-0.7,0.6-1.2C252.5,78.8,252.6,78.3,252.6,77.7z"/>
				<path d="M264.7,79.8c0,0.4-0.1,0.8-0.2,1.1c-0.1,0.3-0.3,0.6-0.6,0.9c-0.3,0.3-0.6,0.5-1,0.6c-0.4,0.1-0.8,0.2-1.4,0.2
					c-0.3,0-0.5,0-0.8,0c-0.2,0-0.5-0.1-0.7-0.1c-0.2-0.1-0.4-0.1-0.6-0.2c-0.2-0.1-0.4-0.2-0.5-0.3v-1.5c0.2,0.1,0.3,0.2,0.6,0.3
					c0.2,0.1,0.4,0.2,0.7,0.3c0.2,0.1,0.5,0.2,0.7,0.2c0.2,0.1,0.4,0.1,0.6,0.1c0.3,0,0.5,0,0.8-0.1c0.2-0.1,0.4-0.2,0.5-0.3
					c0.1-0.1,0.3-0.3,0.3-0.5c0.1-0.2,0.1-0.4,0.1-0.6c0-0.3,0-0.5-0.1-0.6c-0.1-0.2-0.2-0.3-0.4-0.5c-0.2-0.1-0.4-0.2-0.6-0.3
					c-0.2-0.1-0.5-0.2-0.8-0.3c-0.4-0.2-0.8-0.3-1.1-0.5c-0.3-0.2-0.6-0.3-0.8-0.5c-0.2-0.2-0.4-0.4-0.5-0.7c-0.1-0.3-0.2-0.6-0.2-1
					c0-0.4,0.1-0.8,0.2-1.1c0.2-0.3,0.4-0.6,0.7-0.8c0.3-0.2,0.6-0.4,1-0.5c0.4-0.1,0.8-0.2,1.2-0.2c0.5,0,0.9,0,1.2,0.1
					c0.4,0.1,0.7,0.2,1,0.3v1.3c-0.1-0.1-0.3-0.1-0.5-0.2c-0.2-0.1-0.4-0.1-0.6-0.2c-0.2-0.1-0.4-0.1-0.6-0.1c-0.2,0-0.4,0-0.6,0
					c-0.3,0-0.5,0-0.7,0.1c-0.2,0.1-0.4,0.2-0.5,0.3c-0.1,0.1-0.2,0.3-0.3,0.4c-0.1,0.2-0.1,0.3-0.1,0.5c0,0.2,0,0.4,0.1,0.6
					c0.1,0.2,0.2,0.3,0.4,0.4c0.2,0.1,0.4,0.2,0.6,0.3c0.2,0.1,0.5,0.2,0.8,0.3c0.4,0.2,0.7,0.3,1,0.5c0.3,0.2,0.6,0.4,0.8,0.6
					c0.2,0.2,0.4,0.5,0.5,0.7C264.6,79.1,264.7,79.4,264.7,79.8z"/>
				<path d="M275.2,77.6c0,0.8-0.1,1.5-0.3,2.1c-0.2,0.6-0.5,1.2-0.9,1.6s-0.9,0.8-1.4,1c-0.6,0.2-1.2,0.4-1.9,0.4
					c-0.7,0-1.3-0.1-1.9-0.3c-0.6-0.2-1-0.6-1.4-1c-0.4-0.4-0.7-0.9-0.9-1.5c-0.2-0.6-0.3-1.2-0.3-2c0-0.8,0.1-1.4,0.3-2.1
					c0.2-0.6,0.5-1.1,0.9-1.6c0.4-0.4,0.9-0.8,1.5-1c0.6-0.2,1.2-0.4,2-0.4c0.7,0,1.3,0.1,1.8,0.3c0.5,0.2,1,0.6,1.4,1
					c0.4,0.4,0.7,0.9,0.9,1.5C275.1,76.2,275.2,76.9,275.2,77.6z M273.7,77.7c0-0.6-0.1-1.1-0.2-1.6c-0.1-0.5-0.3-0.9-0.6-1.2
					c-0.3-0.3-0.6-0.6-0.9-0.7c-0.4-0.2-0.8-0.3-1.3-0.3c-0.5,0-0.9,0.1-1.3,0.3c-0.4,0.2-0.7,0.4-1,0.8c-0.3,0.3-0.5,0.7-0.6,1.2
					c-0.1,0.5-0.2,1-0.2,1.5c0,0.6,0.1,1.1,0.2,1.5c0.1,0.5,0.3,0.8,0.6,1.2c0.3,0.3,0.6,0.6,0.9,0.7c0.4,0.2,0.8,0.3,1.2,0.3
					c0.5,0,0.9-0.1,1.3-0.2c0.4-0.2,0.7-0.4,1-0.7c0.3-0.3,0.5-0.7,0.6-1.2C273.7,78.8,273.7,78.3,273.7,77.7z"/>
				<path d="M278.4,77.8c0,0.5,0.1,1,0.2,1.5c0.2,0.4,0.4,0.8,0.7,1.1c0.3,0.3,0.6,0.6,1,0.7c0.4,0.2,0.8,0.3,1.3,0.3
					c0.4,0,0.9-0.1,1.3-0.2c0.4-0.1,0.9-0.3,1.3-0.5V82c-0.4,0.2-0.8,0.3-1.2,0.4c-0.5,0.1-1,0.2-1.5,0.2c-0.7,0-1.3-0.1-1.9-0.4
					c-0.6-0.2-1.1-0.6-1.5-1c-0.4-0.4-0.7-0.9-0.9-1.5c-0.2-0.6-0.3-1.2-0.3-2c0-0.7,0.1-1.4,0.4-2c0.2-0.6,0.6-1.1,1-1.6
					c0.4-0.4,0.9-0.8,1.5-1c0.6-0.2,1.2-0.4,1.9-0.4c0.2,0,0.5,0,0.7,0c0.2,0,0.5,0.1,0.7,0.1c0.2,0,0.4,0.1,0.6,0.2
					c0.2,0.1,0.4,0.1,0.6,0.2v1.3c-0.2-0.1-0.4-0.1-0.6-0.2c-0.2-0.1-0.4-0.1-0.7-0.2c-0.2-0.1-0.5-0.1-0.7-0.1
					c-0.2,0-0.5-0.1-0.7-0.1c-0.5,0-0.9,0.1-1.3,0.3c-0.4,0.2-0.7,0.4-1,0.8c-0.3,0.3-0.5,0.7-0.7,1.2
					C278.5,76.7,278.4,77.2,278.4,77.8z"/>
				<path d="M287.8,82.5h-1.5v-9.6h1.5V82.5z"/>
				<path d="M298.1,82.5h-1.6l-1.1-2.7h-3.7l-1,2.7h-1.6l3.7-9.6h1.4L298.1,82.5z M293.8,75.2c0-0.1-0.1-0.2-0.1-0.3
					c0-0.1-0.1-0.3-0.1-0.4h0c0,0.2-0.1,0.3-0.1,0.4c0,0.1-0.1,0.2-0.1,0.3l-1.2,3.2h2.8L293.8,75.2z"/>
				<path d="M304,82.5h-4.6v-9.6h1.5v8.3h3.1V82.5z"/>
			</g>
			<g>
				<path d="M115.7,22.8c-0.7,2.7-1.6,4.9-2.6,6.5l-1.5-1.4c1-1.7,1.8-3.7,2.5-6L115.7,22.8z M114.7,20.2c-1-0.9-1.9-1.6-2.8-2.2
					l1.2-1.3c1.3,0.7,2.2,1.4,2.8,1.9L114.7,20.2z M115.1,14.9c-0.9-0.9-1.9-1.6-2.8-2.3l1.2-1.3c1.2,0.8,2.2,1.4,2.9,2L115.1,14.9z
					 M116,29.4l-0.7-1.6c2.9-0.2,4.8-1.2,5.8-2.9H116v-1.6h5.8v-1h1.8v1h6.5v1.6h-5.6c0.4,0.7,1.1,1.3,2.2,1.8c1,0.6,2.2,0.9,3.4,1
					l-0.8,1.6c-3-0.4-5.2-1.7-6.5-4C121.6,27.8,119.4,29.1,116,29.4z M121.5,12.6c0.3-0.5,0.6-1.1,0.7-1.8L124,11
					c-0.1,0.6-0.3,1.1-0.6,1.6h5.9v9.9h-1.7v-8.4h-9.2v8.6h-1.7V12.6H121.5z M123.8,20.2v1.7h-1.5v-2.9c-0.7,1.3-1.6,2.3-2.7,3.1
					l-1-1c1-0.6,1.8-1.3,2.3-2.1h-2.1v-1.3h1.2c-0.1-0.2-0.3-0.5-0.6-1l1.3-0.2c0.3,0.3,0.5,0.8,0.7,1.2h0.9v-1.5
					c-0.5,0-1,0-1.4,0.1c-0.4,0-0.9,0-1.5,0l-0.5-1.2c0.3,0,0.7,0,1.2,0c2,0,4-0.2,6-0.5l0.7,1.1c-1.3,0.2-2.3,0.4-3.1,0.5v1.6h0.9
					c0.3-0.6,0.5-1,0.6-1.4l1.3,0.3c-0.1,0.2-0.2,0.4-0.3,0.6c-0.1,0.2-0.2,0.3-0.3,0.5h1v1.3h-3.4c1.3,0.7,2.4,1.3,3.3,2l-0.8,1.2
					C125.5,21.5,124.7,20.8,123.8,20.2z"/>
				<path d="M142.2,20.1h-5.9v9.4h-1.9V11.5h7.7V20.1z M140.4,13.1h-4v1.8h4V13.1z M136.3,18.5h4v-2.1h-4V18.5z M149.1,27.3
					c0.5,0,0.7-0.2,0.7-0.7v-6.6h-6.1v-8.6h7.9v15.3c0,0.9-0.1,1.5-0.4,1.8c-0.3,0.3-0.8,0.5-1.5,0.5H147l-0.5-1.9L149.1,27.3z
					 M145.6,14.9h4.2v-1.8h-4.2V14.9z M149.8,16.3h-4.2v2.1h4.2V16.3z"/>
				<path d="M157.7,19.9l-1.8-0.6c0.6-1.7,1-3.9,1-6.8l1.6,0.2c0,0.5,0,0.9,0,1.2c0,0.4,0,0.8-0.1,1.1h1.1v-4h1.9v4h1.8v1.8h-1.8
					v3.9c0.3-0.1,0.6-0.3,0.9-0.4c0.3-0.1,0.6-0.3,0.7-0.4l0.3,1.8c-0.4,0.2-1.1,0.5-1.9,0.9v6.9h-1.9v-6.1
					c-0.3,0.2-0.8,0.4-1.3,0.6c-0.5,0.2-1,0.4-1.5,0.6l-0.8-1.9c1.9-0.6,3.1-1.1,3.6-1.3v-4.6h-1.3
					C158.2,18.1,157.9,19.2,157.7,19.9z M170.8,22.3H164v-1.7h6.8v-2h-7v-1.7h4.2v-2.1h-3.7v-1.7h3.7v-2.2h1.8v2.2h4.1v1.7h-4.1v2.1
					h4.8v1.7h-1.9v2h2v1.7h-2v4.5c0,0.9-0.2,1.5-0.5,1.8c-0.3,0.3-0.9,0.5-1.8,0.5H168l-0.4-1.9l2.6,0.1c0.4,0,0.7-0.2,0.7-0.7V22.3
					z M166.7,26.9c-0.8-1.2-1.6-2.3-2.3-3l1.5-1.1c1,1.1,1.9,2,2.5,2.9L166.7,26.9z"/>
				<path d="M179.6,29.5l-1.3-1.6c0.9-1.3,1.6-2.7,2.1-4c0.5-1.4,0.7-3.3,0.8-5.7h-1.9v-6.7h9.1v6.7H183c0,0.2,0,0.4,0,0.6
					c0,0.6,0,1.1-0.1,1.6h5.3c-0.2,4.9-0.5,7.7-0.8,8.1c-0.3,0.4-0.7,0.7-1.4,0.8c-0.6,0.1-1.4,0.2-2.2,0.2c-0.3,0-0.5,0-0.7,0
					l-0.6-2c0.5,0.1,1,0.1,1.5,0.1s0.9,0,1.1-0.1c0.2-0.1,0.4-0.2,0.5-0.4c0.2-0.4,0.3-2,0.4-4.8h-3.6
					C182.3,24.5,181.3,26.9,179.6,29.5z M181,13.2v3h5.4v-3H181z M190.2,25.2V12h1.8v13.2H190.2z M194.4,10.9h1.9v15.8
					c0,1.7-0.8,2.6-2.3,2.6H191l-0.5-2.2l3.1,0.1c0.5,0,0.7-0.2,0.7-0.7V10.9z"/>
				<path d="M205,29.4h-1.9v-8.3c-0.3,0.5-0.9,1.1-1.7,1.9l-1-1.9c2.1-1.9,3.7-3.8,4.7-5.5l1.5,1.1c-0.7,1.1-1.2,1.9-1.6,2.5V29.4z
					 M206.4,11.9c-1.6,1.8-3.1,3.3-4.7,4.6l-1.2-1.7c1.7-1.1,3.2-2.4,4.3-3.9L206.4,11.9z M216,18.9v8c0,1-0.2,1.6-0.5,1.9
					c-0.3,0.3-1.1,0.5-2.2,0.5l-2.8,0l-0.5-2l2.8,0.1c0.1,0,0.2,0,0.3,0c0.4,0,0.6,0,0.7-0.1c0.1-0.1,0.2-0.4,0.2-0.8v-7.6h-7.2
					v-1.8H219v1.8H216z M207.9,13.7v-1.8h10v1.8H207.9z"/>
				<path d="M231.5,19.7h-2.3v5c0.4-0.2,0.9-0.3,1.4-0.5c0.5-0.2,1-0.4,1.4-0.6v1.8c-2.4,1.1-5.2,2.1-8.5,3.1l-0.8-2
					c0.2-0.1,0.5-0.1,0.7-0.2c0.2,0,0.4-0.1,0.6-0.1v-10h1.9v9.5c0.7-0.2,1.3-0.3,1.5-0.4V13.6H223v-1.7h9.4v1.7h-3.2v4.3h1.7
					c1.6-1.4,2.8-3.8,3.5-7l1.9,0.4c-0.2,0.6-0.3,1.1-0.4,1.4c-0.1,0.4-0.2,0.8-0.4,1.1h5.9v1.8h-1.6c-0.2,3.4-0.9,6.1-2.2,8.3
					c0,0.1,0.3,0.5,1,1.3c0.7,0.8,1.6,1.6,2.7,2.5l-1.2,1.7c-1.1-0.9-2.3-2.2-3.7-3.9c-1.5,1.7-3.2,3-5.1,4l-1.2-1.7
					c2.2-1,4-2.2,5.2-3.7c-0.9-1.3-1.7-3.1-2.3-5.2c-0.2,0.2-0.3,0.4-0.5,0.6c-0.2,0.2-0.4,0.4-0.6,0.7L231.5,19.7z M234.6,15.7
					c-0.1,0.2-0.1,0.3-0.2,0.5c-0.2,0.4-0.4,0.7-0.4,0.7c0,0,0.2,0.7,0.7,2.1c0.5,1.4,0.9,2.5,1.4,3.4c0.9-1.7,1.4-3.9,1.7-6.7
					L234.6,15.7z"/>
				<path d="M263.5,28.3h-16.2v1.1h-1.9V11.3h17.6v1.8h-15.6v13.4h16.2V28.3z M248.5,20.1h6.4v5.3h-6.4V20.1z M253.2,21.7h-3v2.1h3
					V21.7z M250.3,14h9.9v4.9h-9.9V14z M258.3,15.7h-6.2v1.6h6.2V15.7z M256.3,20.1h6.3v5.3h-6.3V20.1z M260.9,21.7h-3v2.1h3V21.7z"
					/>
				<path d="M275.9,19.7h-2.3v5c0.4-0.2,0.9-0.3,1.4-0.5c0.5-0.2,1-0.4,1.4-0.6v1.8c-2.4,1.1-5.2,2.1-8.5,3.1l-0.8-2
					c0.2-0.1,0.5-0.1,0.7-0.2c0.2,0,0.4-0.1,0.6-0.1v-10h1.9v9.5c0.7-0.2,1.3-0.3,1.5-0.4V13.6h-4.3v-1.7h9.4v1.7h-3.2v4.3h1.7
					c1.6-1.4,2.8-3.8,3.5-7l1.9,0.4c-0.2,0.6-0.3,1.1-0.4,1.4c-0.1,0.4-0.2,0.8-0.4,1.1h5.9v1.8h-1.6c-0.2,3.4-0.9,6.1-2.2,8.3
					c0,0.1,0.3,0.5,1,1.3c0.7,0.8,1.6,1.6,2.7,2.5l-1.2,1.7c-1.1-0.9-2.3-2.2-3.7-3.9c-1.5,1.7-3.2,3-5.1,4l-1.2-1.7
					c2.2-1,4-2.2,5.2-3.7c-0.9-1.3-1.7-3.1-2.3-5.2c-0.2,0.2-0.3,0.4-0.5,0.6c-0.2,0.2-0.4,0.4-0.6,0.7L275.9,19.7z M279.1,15.7
					c-0.1,0.2-0.1,0.3-0.2,0.5c-0.2,0.4-0.4,0.7-0.4,0.7c0,0,0.2,0.7,0.7,2.1c0.5,1.4,0.9,2.5,1.4,3.4c0.9-1.7,1.4-3.9,1.7-6.7
					L279.1,15.7z"/>
				<path d="M298.5,12.5c-0.2-0.5-0.5-0.9-0.7-1.4l2-0.3c0.2,0.3,0.5,0.9,0.8,1.7h7.4v1.8h-14.8v3.7c0,5.5-0.7,9.2-2.1,11l-1.7-1.3
					c0.6-0.8,1-1.8,1.3-3c0.3-1.2,0.5-3.9,0.5-8.2v-4H298.5z M295.5,21.5c-0.3,0.6-0.8,1.3-1.4,1.9l-1-1.7c1.6-1.8,2.9-4.1,3.8-6.8
					l1.7,0.6c-0.4,1.2-0.8,2.2-1.2,3v11h-1.8V21.5z M304.2,19.6h-5.8v-1.8h5.8v-2.5h1.9v2.5h1.8v1.8h-1.8v7.2c0,0.9-0.2,1.5-0.5,1.8
					c-0.3,0.3-0.9,0.5-1.8,0.5h-2.6l-0.5-1.8l2.9,0.1c0.4,0,0.7-0.2,0.7-0.6V19.6z M301.1,25.4c-0.7-1.4-1.5-2.5-2.2-3.5l1.5-0.9
					c0.9,0.9,1.7,2,2.4,3.4L301.1,25.4z"/>
				<path d="M159.6,35c-0.3-0.7-0.7-1.7-1.2-2.8l1.8-0.3c0.4,0.7,0.7,1.7,1.2,3.1h2.6v1.8c-0.7,1.3-1.5,2.6-2.3,3.7
					c1.2,0.9,2.3,1.9,3.5,3L164,45c-0.6-0.6-1.5-1.4-2.7-2.4v8h-1.9v-7.3c-0.9,0.9-1.8,1.6-2.7,2.2l-0.7-1.9c2.5-1.7,4.5-4,6-6.7
					h-5.8V35H159.6z M163.3,49.9V48h5.1v-9.3h-3.8v-1.9h3.8v-4.7h2v4.7h3.9v1.9h-3.9V48h4.2v1.9H163.3z"/>
				<path d="M179,37.8l-0.8-1.8c3.2-1.1,6-2.5,8.3-4h2c2.5,1.6,5.3,2.9,8.3,3.9l-0.7,1.8l-0.6-0.3v5.2h-15.6v-5.2L179,37.8z
					 M180.2,37.3h14.9c-1.4-0.6-2.7-1.2-3.9-1.8v0.9h-7.1v-1C182.9,36.1,181.6,36.8,180.2,37.3z M180.6,43.7h13.9v6.9h-1.9v-0.7
					h-10.2v0.7h-1.9V43.7z M186.6,38.7h-5.1v2.7h5.1V38.7z M182.5,46.2h10.2v-1.1h-10.2V46.2z M182.5,48.6h10.2v-1.2h-10.2V48.6z
					 M184,41.3c-0.5-1-0.9-1.6-1.2-2l1.2-0.6c0.4,0.4,0.9,1,1.4,1.8L184,41.3z M187.6,33.4c-0.9,0.6-1.8,1.2-2.8,1.6h5.6
					C189.3,34.5,188.4,34,187.6,33.4z M193.7,38.7h-5.3v2.7h5.3V38.7z M189.8,40.5c0.3-0.2,0.7-0.8,1.3-1.7l1.3,0.7
					c-0.6,1-1,1.7-1.2,1.9L189.8,40.5z"/>
				<path d="M210.8,47.5h8v1.9h-18.2v-1.9h8.1V35.6h-7.3v-1.9h16.6v1.9h-7.3V47.5z"/>
				<path d="M222.6,39.8c0.6-0.6,1.5-1.8,2.5-3.4c1.1-1.7,1.8-3.1,2.3-4.4l1.7,0.9c-0.7,1.6-1.4,2.8-1.9,3.7v14h-2V39.5
					c-0.8,1.3-1.5,2.2-1.8,2.5L222.6,39.8z M241.2,34.8v1.8h-6.9v2.8h6v1.8h-6v3.1h6.3v1.8h-6.3v4.5h-2V36.6H232
					c-0.8,1.6-1.9,3-3.1,4.4l-1.4-1.5c2-2,3.5-4.5,4.4-7.6l1.8,0.5c-0.2,0.7-0.5,1.4-0.9,2.3H241.2z"/>
				<path d="M248.7,39.3h14.7c0,4-0.1,6.7-0.3,7.9c-0.2,1.1-0.5,1.9-0.9,2.4c-0.5,0.5-1.6,0.8-3.4,0.8c-0.2,0-0.3,0-0.4,0l-0.6-1.8
					c0.5,0.1,0.9,0.1,1.4,0.1c1,0,1.6-0.2,1.8-0.6c0.2-0.4,0.4-1.1,0.5-2.1c0.1-1.1,0.1-2.4,0.1-4.1c0-0.4,0-0.7,0-0.9h-12.9
					c-0.1,3.4-0.9,6.5-2.2,9.3l-1.5-1.6c1.3-2.3,2-6,2-11.1v-5.2h15.9v5.3h-14.1L248.7,39.3z M248.7,36H261v-1.8h-12.3V36z
					 M250.2,42.4h8.9v5.5h-8.9V42.4z M257.3,44.1H252v2.1h5.3V44.1z"/>
			</g>
		</g>
	</g>
</g>
</svg>
